<svg width="53" height="53" viewBox="0 0 53 53" fill="none" xmlns="http://www.w3.org/2000/svg">
<g clip-path="url(#clip0_2004_12)">
<path d="M31.9133 6.24829C29.8473 6.94497 28.0535 8.29829 26.9004 10.02C25.8754 11.5495 24.6982 14.4243 24.0656 16.9307C23.5771 18.9006 23.2248 21.5993 23.2168 23.4571V24.1377L22.7123 23.2569C21.8635 21.7514 21.2309 20.9026 20.1418 19.7895C18.6604 18.268 16.3141 16.6424 15.6014 16.6504C15.185 16.6584 14.8887 16.9627 14.8887 17.3872C14.8887 17.4913 15.2891 18.26 15.7695 19.0928C16.9146 21.0547 17.7715 22.7364 17.5553 22.5762C17.4672 22.5122 17.0027 22.1278 16.5303 21.7354C15.0488 20.4942 14.1199 19.9256 12.8547 19.4932C11.5014 19.0368 9.70762 18.8606 8.64258 19.0848C7.92988 19.229 6.72871 19.8055 6.3043 20.1979C6.04004 20.4381 6 20.5262 6 20.8305C6 21.359 6.17617 21.4791 7.32129 21.7354C8.92285 22.0957 10.5645 22.7844 11.9578 23.6973C12.5664 24.0977 13.9197 25.1627 14.8166 25.9555C16.1379 27.1247 17.4672 28.9905 18.284 30.8483C18.5082 31.3608 18.5002 31.3608 17.8115 30.8243C15.5773 29.0625 12.3182 27.5651 9.52344 27.0125C8.69863 26.8524 8.4584 26.9165 8.27422 27.3489C8.06602 27.8534 8.17812 28.0215 9.32324 28.8864C11.3812 30.4399 14.0238 32.8102 15.6254 34.5399C18.1078 37.2225 19.4611 38.9842 22.2559 43.1643C23.3209 44.7659 24.3139 46.1993 24.45 46.3514C24.9865 46.936 25.9475 47.1602 26.7322 46.8799C26.9164 46.8159 27.525 46.4475 28.0855 46.0551C30.4318 44.4135 31.9293 43.5327 33.5949 42.804C36.5098 41.5227 39.3686 40.8661 42.6437 40.7059C44.0131 40.6418 44.2293 40.5698 44.3494 40.1454C44.5016 39.5928 44.2934 39.3606 43.2443 38.9041C41.4986 38.1594 39.865 37.7991 37.8551 37.735C35.677 37.6629 33.5148 38.0393 31.8012 38.8L31.3768 38.9842L32.0814 37.6149C33.2826 35.2526 34.5398 33.5069 36.3016 31.7372C38.0232 30.0235 39.7689 28.7342 41.875 27.6372C42.852 27.1247 43.6127 26.8043 45.975 25.9075C46.8158 25.5872 47 25.427 47 25.0106C47 24.6182 46.7277 24.362 45.8469 23.9456C44.6777 23.385 44.0852 23.2569 42.6758 23.2569C41.6988 23.2649 41.4105 23.2889 40.874 23.4491C39.7289 23.7774 38.3355 24.5461 36.6459 25.7553C36.2615 26.0356 35.9252 26.2598 35.9092 26.2598C35.8451 26.2598 36.6299 25.1707 37.2545 24.394C39.2484 21.9116 41.859 19.8696 44.91 18.3881C45.5426 18.0838 46.1271 17.7635 46.2072 17.6834C46.4555 17.4352 46.4074 16.9547 46.1111 16.6104C45.5506 15.9698 44.7338 15.6895 43.4365 15.6815C41.3465 15.6735 39.4326 16.5623 36.6299 18.8606C34.2596 20.7985 32.4658 23.1368 30.7201 26.5801C30.2557 27.509 30.1115 27.7413 30.1436 27.501C30.4959 25.3629 31.673 21.6873 32.7301 19.4131C34.4117 15.8016 36.9502 12.7026 40.2895 10.2041C40.5857 9.97993 40.866 9.69965 40.9221 9.57954C41.0502 9.28325 40.9301 8.90688 40.6498 8.69067C40.4416 8.53852 40.3135 8.5225 39.2484 8.5225C37.9111 8.5225 37.5107 8.6186 36.5018 9.1311C35.2445 9.77973 32.7381 12.0139 31.2166 13.8477C30.0795 15.209 28.7262 17.5233 28.0615 19.253L27.9414 19.5733L27.9814 19.253C28.1416 18.1319 28.8463 15.8657 29.5109 14.3522C30.0555 13.103 30.3277 12.5905 32.1295 9.52348C33.0424 7.96997 33.5789 6.977 33.6029 6.78481C33.643 6.52856 33.6109 6.44848 33.4027 6.24028C33.0904 5.92797 32.8422 5.92797 31.9133 6.24829ZM30.1676 9.89985C28.574 12.6465 28.0055 13.8237 27.3568 15.7696C26.3559 18.7485 26.0115 21.367 26.0836 25.2829C26.0996 25.9956 26.1076 26.0436 26.3318 26.2678C26.7322 26.6602 27.3328 26.5481 27.525 26.0436C27.573 25.9235 27.7012 25.443 27.8133 24.9786C28.0295 24.0577 28.8062 21.6313 29.3428 20.1739C30.624 16.7225 32.618 14.0399 35.8611 11.4053C36.6539 10.7647 37.0623 10.5004 37.5908 10.2842C37.9111 10.1481 37.9111 10.1481 37.4307 10.5725C35.4127 12.3342 33.3307 14.9928 31.9693 17.5313C30.6881 19.9336 29.1746 24.362 28.7021 27.0926C28.558 27.9575 27.9414 33.3467 27.9414 33.7791C27.9414 34.0274 27.9895 34.1315 28.1896 34.2997C28.51 34.5719 28.8383 34.5719 29.1346 34.2916C29.3187 34.1155 29.583 33.4989 30.3838 31.3448C30.9443 29.8473 31.649 28.1176 31.9453 27.501C33.8432 23.5932 36.2535 20.7584 39.4887 18.6284C41.0662 17.5873 41.9711 17.243 43.2924 17.1629L43.9971 17.1149L43.1562 17.5713C39.0723 19.7735 35.5889 23.3049 33.4668 27.4049C32.7461 28.7903 32.4018 29.6631 32.4658 29.9194C32.5459 30.2477 32.8662 30.504 33.1865 30.504C33.4508 30.504 33.5709 30.4159 34.4117 29.5991C35.9893 28.0856 37.4947 26.9084 39.2404 25.8514C40.1854 25.2829 40.9141 24.9625 41.6027 24.8184C42.2193 24.6823 43.3244 24.6823 43.8609 24.8184L44.2854 24.9145L43.3404 25.2909C41.3785 26.0676 38.8721 27.517 37.2865 28.7983C34.684 30.9043 32.7221 33.2586 31.0885 36.2295C30.1516 37.9352 28.9023 40.5217 28.9023 40.77C28.9023 40.9221 28.9824 41.0823 29.1346 41.2424C29.4949 41.5948 29.7592 41.5547 30.7682 40.9942C32.65 39.9452 34.3717 39.4086 36.3816 39.2325C37.1744 39.1604 39.0402 39.2485 39.6328 39.3766C39.8811 39.4327 39.817 39.4567 39.0643 39.5768C37.3346 39.8571 34.9402 40.5618 33.3467 41.2584C31.3607 42.1153 30.0074 42.892 27.7412 44.4536C26.1396 45.5586 25.9395 45.6467 25.6111 45.3504C25.515 45.2704 24.5461 43.861 23.457 42.2274C20.7904 38.2475 19.7494 36.8622 17.6834 34.5479C16.7945 33.5549 14.3682 31.1286 13.2471 30.1196L12.6064 29.543L13.2471 29.8233C14.5523 30.4079 16.282 31.4889 17.4432 32.4659C17.9477 32.8903 18.9326 33.8352 19.6453 34.5799C20.0697 35.0284 20.1418 35.0684 20.4461 35.0684C20.9426 35.0604 21.2789 34.7081 21.1908 34.2756C21.1027 33.8432 19.6533 30.1916 19.2529 29.3829C18.1559 27.1967 16.7145 25.4831 14.4482 23.6653C12.8227 22.368 11.4373 21.5512 9.81973 20.9346C9.34727 20.7504 8.98691 20.5743 9.01895 20.5502C9.11504 20.4541 10.4523 20.4942 11.149 20.6143C12.5664 20.8625 13.7676 21.4391 15.0889 22.5041C17.2189 24.2178 18.6203 25.7313 19.6613 27.4209C20.2059 28.3098 20.2459 28.3739 20.4861 28.494C20.9105 28.7262 21.5352 28.3498 21.5352 27.8694C21.5352 27.4129 20.0297 23.8975 18.7564 21.3911C18.348 20.5823 18.0117 19.9016 18.0117 19.8776C18.0117 19.7895 18.9566 20.6944 19.5172 21.327C20.8785 22.8325 22.36 25.5631 23.2168 28.1336C23.3209 28.4459 23.4811 28.7743 23.5852 28.8784C23.8174 29.1106 24.3219 29.1266 24.5861 28.9104L24.7783 28.7582V25.0426C24.7863 21.1348 24.8023 20.8225 25.2187 18.6924C25.6352 16.5303 26.4359 14.144 27.4209 12.1581C27.9574 11.061 28.4459 10.3643 29.1746 9.6436C29.7191 9.10707 30.9604 8.19418 31.0484 8.27426C31.0645 8.29829 30.6721 9.027 30.1676 9.89985Z" fill="black"/>
</g>
<defs>
<clipPath id="clip0_2004_12">
<rect width="41" height="41" fill="white" transform="translate(6 6)"/>
</clipPath>
</defs>
</svg>
