<svg width="512" height="512" viewBox="0 0 512 512" fill="none" xmlns="http://www.w3.org/2000/svg">
<g clip-path="url(#clip0_2003_9)">
<path d="M323.6 3.09981C297.8 11.7998 275.4 28.6998 261 50.1998C248.2 69.2998 233.5 105.2 225.6 136.5C219.5 161.1 215.1 194.8 215 218V226.5L208.7 215.5C198.1 196.7 190.2 186.1 176.6 172.2C158.1 153.2 128.8 132.9 119.9 133C114.7 133.1 111 136.9 111 142.2C111 143.5 116 153.1 122 163.5C136.3 188 147 209 144.3 207C143.2 206.2 137.4 201.4 131.5 196.5C113 181 101.4 173.9 85.6 168.5C68.7 162.8 46.3 160.6 33 163.4C24.1 165.2 9.1 172.4 3.8 177.3C0.5 180.3 0 181.4 0 185.2C0 191.8 2.2 193.3 16.5 196.5C36.5 201 57 209.6 74.4 221C82 226 98.9 239.3 110.1 249.2C126.6 263.8 143.2 287.1 153.4 310.3C156.2 316.7 156.1 316.7 147.5 310C119.6 288 78.9 269.3 44 262.4C33.7 260.4 30.7 261.2 28.4 266.6C25.8 272.9 27.2 275 41.5 285.8C67.2 305.2 100.2 334.8 120.2 356.4C151.2 389.9 168.1 411.9 203 464.1C216.3 484.1 228.7 502 230.4 503.9C237.1 511.2 249.1 514 258.9 510.5C261.2 509.7 268.8 505.1 275.8 500.2C305.1 479.7 323.8 468.7 344.6 459.6C381 443.6 416.7 435.4 457.6 433.4C474.7 432.6 477.4 431.7 478.9 426.4C480.8 419.5 478.2 416.6 465.1 410.9C443.3 401.6 422.9 397.1 397.8 396.3C370.6 395.4 343.6 400.1 322.2 409.6L316.9 411.9L325.7 394.8C340.7 365.3 356.4 343.5 378.4 321.4C399.9 300 421.7 283.9 448 270.2C460.2 263.8 469.7 259.8 499.2 248.6C509.7 244.6 512 242.6 512 237.4C512 232.5 508.6 229.3 497.6 224.1C483 217.1 475.6 215.5 458 215.5C445.8 215.6 442.2 215.9 435.5 217.9C421.2 222 403.8 231.6 382.7 246.7C377.9 250.2 373.7 253 373.5 253C372.7 253 382.5 239.4 390.3 229.7C415.2 198.7 447.8 173.2 485.9 154.7C493.8 150.9 501.1 146.9 502.1 145.9C505.2 142.8 504.6 136.8 500.9 132.5C493.9 124.5 483.7 121 467.5 120.9C441.4 120.8 417.5 131.9 382.5 160.6C352.9 184.8 330.5 214 308.7 257C302.9 268.6 301.1 271.5 301.5 268.5C305.9 241.8 320.6 195.9 333.8 167.5C354.8 122.4 386.5 83.6998 428.2 52.4998C431.9 49.6998 435.4 46.1998 436.1 44.6998C437.7 40.9998 436.2 36.2998 432.7 33.5998C430.1 31.6998 428.5 31.4998 415.2 31.4998C398.5 31.4998 393.5 32.6998 380.9 39.0998C365.2 47.1998 333.9 75.0998 314.9 97.9998C300.7 115 283.8 143.9 275.5 165.5L274 169.5L274.5 165.5C276.5 151.5 285.3 123.2 293.6 104.3C300.4 88.6998 303.8 82.2998 326.3 43.9998C337.7 24.5998 344.4 12.1998 344.7 9.79981C345.2 6.59981 344.8 5.59981 342.2 2.99981C338.3 -0.900192 335.2 -0.900192 323.6 3.09981ZM301.8 48.6998C281.9 82.9998 274.8 97.6998 266.7 122C254.2 159.2 249.9 191.9 250.8 240.8C251 249.7 251.1 250.3 253.9 253.1C258.9 258 266.4 256.6 268.8 250.3C269.4 248.8 271 242.8 272.4 237C275.1 225.5 284.8 195.2 291.5 177C307.5 133.9 332.4 100.4 372.9 67.4998C382.8 59.4998 387.9 56.1998 394.5 53.4998C398.5 51.7998 398.5 51.7998 392.5 57.0998C367.3 79.0998 341.3 112.3 324.3 144C308.3 174 289.4 229.3 283.5 263.4C281.7 274.2 274 341.5 274 346.9C274 350 274.6 351.3 277.1 353.4C281.1 356.8 285.2 356.8 288.9 353.3C291.2 351.1 294.5 343.4 304.5 316.5C311.5 297.8 320.3 276.2 324 268.5C347.7 219.7 377.8 184.3 418.2 157.7C437.9 144.7 449.2 140.4 465.7 139.4L474.5 138.8L464 144.5C413 172 369.5 216.1 343 267.3C334 284.6 329.7 295.5 330.5 298.7C331.5 302.8 335.5 306 339.5 306C342.8 306 344.3 304.9 354.8 294.7C374.5 275.8 393.3 261.1 415.1 247.9C426.9 240.8 436 236.8 444.6 235C452.3 233.3 466.1 233.3 472.8 235L478.1 236.2L466.3 240.9C441.8 250.6 410.5 268.7 390.7 284.7C358.2 311 333.7 340.4 313.3 377.5C301.6 398.8 286 431.1 286 434.2C286 436.1 287 438.1 288.9 440.1C293.4 444.5 296.7 444 309.3 437C332.8 423.9 354.3 417.2 379.4 415C389.3 414.1 412.6 415.2 420 416.8C423.1 417.5 422.3 417.8 412.9 419.3C391.3 422.8 361.4 431.6 341.5 440.3C316.7 451 299.8 460.7 271.5 480.2C251.5 494 249 495.1 244.9 491.4C243.7 490.4 231.6 472.8 218 452.4C184.7 402.7 171.7 385.4 145.9 356.5C134.8 344.1 104.5 313.8 90.5 301.2L82.5 294L90.5 297.5C106.8 304.8 128.4 318.3 142.9 330.5C149.2 335.8 161.5 347.6 170.4 356.9C175.7 362.5 176.6 363 180.4 363C186.6 362.9 190.8 358.5 189.7 353.1C188.6 347.7 170.5 302.1 165.5 292C151.8 264.7 133.8 243.3 105.5 220.6C85.2 204.4 67.9 194.2 47.7 186.5C41.8 184.2 37.3 182 37.7 181.7C38.9 180.5 55.6 181 64.3 182.5C82 185.6 97 192.8 113.5 206.1C140.1 227.5 157.6 246.4 170.6 267.5C177.4 278.6 177.9 279.4 180.9 280.9C186.2 283.8 194 279.1 194 273.1C194 267.4 175.2 223.5 159.3 192.2C154.2 182.1 150 173.6 150 173.3C150 172.2 161.8 183.5 168.8 191.4C185.8 210.2 204.3 244.3 215 276.4C216.3 280.3 218.3 284.4 219.6 285.7C222.5 288.6 228.8 288.8 232.1 286.1L234.5 284.2V237.8C234.6 189 234.8 185.1 240 158.5C245.2 131.5 255.2 101.7 267.5 76.8998C274.2 63.1998 280.3 54.4998 289.4 45.4998C296.2 38.7998 311.7 27.3998 312.8 28.3998C313 28.6998 308.1 37.7998 301.8 48.6998Z" fill="black"/>
</g>
<defs>
<clipPath id="clip0_2003_9">
<rect width="512" height="512" fill="white"/>
</clipPath>
</defs>
</svg>
